<svg width="151" height="36" viewBox="0 0 151 36" fill="none" xmlns="http://www.w3.org/2000/svg">
<path d="M17.6147 24.4771V28.8807H0V25.4312L10.055 13.5413H0.25688V9.13761H17.2844V12.5872L7.22936 24.4771H17.6147Z" fill="#424242"/>
<path d="M36.5186 19.0826C36.5186 19.156 36.4819 19.6697 36.4085 20.6239H21.4728C21.7419 21.8471 22.378 22.8135 23.381 23.5229C24.3841 24.2324 25.6318 24.5872 27.1241 24.5872C28.1517 24.5872 29.0569 24.4404 29.8397 24.1468C30.6471 23.8287 31.3932 23.3394 32.0783 22.6789L35.1241 25.9816C33.2648 28.1101 30.5492 29.1743 26.9773 29.1743C24.751 29.1743 22.7816 28.7462 21.0691 27.8899C19.3566 27.0092 18.0355 25.7982 17.1058 24.2569C16.1761 22.7156 15.7113 20.9664 15.7113 19.0092C15.7113 17.0765 16.1639 15.3395 17.0691 13.7982C17.9988 12.2324 19.2587 11.0214 20.8489 10.1651C22.4636 9.2844 24.2618 8.84404 26.2434 8.84404C28.1761 8.84404 29.9254 9.25994 31.4911 10.0917C33.0569 10.9235 34.2801 12.1223 35.1608 13.6881C36.066 15.2294 36.5186 17.0275 36.5186 19.0826ZM26.2801 13.1743C24.9835 13.1743 23.8948 13.5413 23.014 14.2752C22.1333 15.0092 21.5951 16.0122 21.3994 17.2844H31.1241C30.9284 16.0367 30.3902 15.0459 29.5095 14.3119C28.6287 13.5535 27.5523 13.1743 26.2801 13.1743Z" fill="#424242"/>
<path d="M48.1465 8.84404C49.9814 8.84404 51.645 9.27217 53.1373 10.1284C54.6541 10.9602 55.8407 12.1468 56.697 13.6881C57.5532 15.2049 57.9814 16.9786 57.9814 19.0092C57.9814 21.0398 57.5532 22.8257 56.697 24.367C55.8407 25.8838 54.6541 27.0703 53.1373 27.9266C51.645 28.7584 49.9814 29.1743 48.1465 29.1743C45.6266 29.1743 43.645 28.3792 42.2015 26.789V36H36.4768V9.13761H41.9447V11.4128C43.3636 9.70031 45.4309 8.84404 48.1465 8.84404ZM47.1557 24.4771C48.6236 24.4771 49.8223 23.9878 50.752 23.0092C51.7061 22.0061 52.1832 20.6728 52.1832 19.0092C52.1832 17.3456 51.7061 16.0245 50.752 15.0459C49.8223 14.0428 48.6236 13.5413 47.1557 13.5413C45.6878 13.5413 44.4768 14.0428 43.5226 15.0459C42.593 16.0245 42.1282 17.3456 42.1282 19.0092C42.1282 20.6728 42.593 22.0061 43.5226 23.0092C44.4768 23.9878 45.6878 24.4771 47.1557 24.4771Z" fill="#424242"/>
<path d="M69.6302 8.84404C71.465 8.84404 73.1286 9.27217 74.621 10.1284C76.1378 10.9602 77.3243 12.1468 78.1806 13.6881C79.0369 15.2049 79.465 16.9786 79.465 19.0092C79.465 21.0398 79.0369 22.8257 78.1806 24.367C77.3243 25.8838 76.1378 27.0703 74.621 27.9266C73.1286 28.7584 71.465 29.1743 69.6302 29.1743C67.1103 29.1743 65.1286 28.3792 63.6852 26.789V36H57.9604V9.13761H63.4283V11.4128C64.8473 9.70031 66.9146 8.84404 69.6302 8.84404ZM68.6393 24.4771C70.1072 24.4771 71.306 23.9878 72.2357 23.0092C73.1898 22.0061 73.6669 20.6728 73.6669 19.0092C73.6669 17.3456 73.1898 16.0245 72.2357 15.0459C71.306 14.0428 70.1072 13.5413 68.6393 13.5413C67.1714 13.5413 65.9604 14.0428 65.0063 15.0459C64.0766 16.0245 63.6118 17.3456 63.6118 19.0092C63.6118 20.6728 64.0766 22.0061 65.0063 23.0092C65.9604 23.9878 67.1714 24.4771 68.6393 24.4771Z" fill="#424242"/>
<path d="M98.7835 19.0826C98.7835 19.156 98.7468 19.6697 98.6735 20.6239H83.7377C84.0068 21.8471 84.6429 22.8135 85.6459 23.5229C86.649 24.2324 87.8967 24.5872 89.389 24.5872C90.4166 24.5872 91.3218 24.4404 92.1047 24.1468C92.912 23.8287 93.6582 23.3394 94.3432 22.6789L97.3891 25.9816C95.5297 28.1101 92.8141 29.1743 89.2423 29.1743C87.016 29.1743 85.0465 28.7462 83.334 27.8899C81.6215 27.0092 80.3004 25.7982 79.3707 24.2569C78.441 22.7156 77.9762 20.9664 77.9762 19.0092C77.9762 17.0765 78.4288 15.3395 79.334 13.7982C80.2637 12.2324 81.5236 11.0214 83.1138 10.1651C84.7285 9.2844 86.5267 8.84404 88.5083 8.84404C90.441 8.84404 92.1903 9.25994 93.756 10.0917C95.3218 10.9235 96.545 12.1223 97.4258 13.6881C98.3309 15.2294 98.7835 17.0275 98.7835 19.0826ZM88.545 13.1743C87.2484 13.1743 86.1597 13.5413 85.279 14.2752C84.3982 15.0092 83.86 16.0122 83.6643 17.2844H93.3891C93.1933 16.0367 92.6551 15.0459 91.7744 14.3119C90.8936 13.5535 89.8172 13.1743 88.545 13.1743Z" fill="#424242"/>
<path d="M98.7417 1.65138H104.466V28.8807H98.7417V1.65138Z" fill="#424242"/>
<path d="M105.926 9.13761H111.651V28.8807H105.926V9.13761ZM108.789 6.38532C107.737 6.38532 106.88 6.07951 106.22 5.46789C105.559 4.85627 105.229 4.09786 105.229 3.19266C105.229 2.28746 105.559 1.52905 106.22 0.917432C106.88 0.305811 107.737 0 108.789 0C109.841 0 110.697 0.293579 111.358 0.880736C112.018 1.46789 112.348 2.20184 112.348 3.08257C112.348 4.0367 112.018 4.83181 111.358 5.46789C110.697 6.07951 109.841 6.38532 108.789 6.38532Z" fill="#424242"/>
<path d="M125.111 8.84404C127.557 8.84404 129.527 9.57798 131.019 11.0459C132.536 12.5138 133.294 14.6911 133.294 17.578V28.8807H127.57V18.4587C127.57 16.893 127.227 15.7309 126.542 14.9725C125.857 14.1896 124.866 13.7982 123.57 13.7982C122.126 13.7982 120.976 14.2508 120.12 15.156C119.264 16.0367 118.836 17.3578 118.836 19.1193V28.8807H113.111V9.13761H118.579V11.4495C119.337 10.6177 120.279 9.98165 121.405 9.54129C122.53 9.07645 123.765 8.84404 125.111 8.84404Z" fill="#424242"/>
<path d="M141.273 29.1743C139.633 29.1743 138.031 28.9786 136.465 28.5872C134.9 28.1713 133.652 27.6575 132.722 27.0459L134.63 22.9358C135.511 23.4985 136.575 23.9633 137.823 24.3303C139.071 24.6728 140.294 24.844 141.493 24.844C143.915 24.844 145.126 24.2446 145.126 23.0459C145.126 22.4832 144.796 22.0795 144.135 21.8349C143.474 21.5902 142.459 21.3823 141.089 21.211C139.474 20.9664 138.141 20.685 137.089 20.367C136.037 20.0489 135.12 19.4862 134.337 18.6789C133.578 17.8716 133.199 16.7217 133.199 15.2294C133.199 13.9817 133.554 12.8807 134.263 11.9266C134.997 10.948 136.049 10.1896 137.419 9.65138C138.814 9.11315 140.453 8.84404 142.337 8.84404C143.731 8.84404 145.114 9.00306 146.484 9.3211C147.878 9.61468 149.028 10.0306 149.933 10.5688L148.025 14.6422C146.288 13.6636 144.392 13.1743 142.337 13.1743C141.114 13.1743 140.196 13.3456 139.585 13.6881C138.973 14.0306 138.667 14.4709 138.667 15.0092C138.667 15.6208 138.997 16.0489 139.658 16.2936C140.319 16.5382 141.371 16.7706 142.814 16.9908C144.429 17.2599 145.75 17.5535 146.777 17.8716C147.805 18.1651 148.698 18.7156 149.456 19.5229C150.215 20.3303 150.594 21.4557 150.594 22.8991C150.594 24.1223 150.227 25.211 149.493 26.1651C148.759 27.1193 147.682 27.8654 146.263 28.4037C144.869 28.9174 143.205 29.1743 141.273 29.1743Z" fill="#424242"/>
</svg>
